<?xml version="1.0" ?>
<svg enable-background="new 0 0 32 32" version="1.0" viewBox="0 0 32 32" xmlns="http://www.w3.org/2000/svg">
 <g style="fill:#ffffff">
  <path d="m15.986 4s-6.7135 6.563e-4 -11.189 0.34766c-0.625 0.077-1.9871 0.083406-3.2051 1.4414-0.958 1.036-1.2715 3.3906-1.2715 3.3906s-0.32031 2.7605-0.32031 5.5215v2.5879c0 2.763 0.32031 5.5234 0.32031 5.5234s0.31248 2.3508 1.2715 3.3848c1.218 1.358 2.8134 1.317 3.5254 1.459 2.559 0.262 10.877 0.34375 10.877 0.34375s6.7222-0.012469 11.199-0.35547c0.625-0.08 1.9881-0.087312 3.2051-1.4453 0.958-1.034 1.2715-3.3867 1.2715-3.3867s0.32031-2.7614 0.32031-5.5234v-2.5879c0-2.762-0.32031-5.5215-0.32031-5.5215s-0.31248-2.3546-1.2715-3.3906c-1.217-1.358-2.5801-1.3644-3.2051-1.4414-4.477-0.347-11.191-0.34766-11.191-0.34766h-0.015625zm-3.9863 6l10 6-10 6v-12z" style="fill:#ffffff"/>
 </g>
</svg>
